<svg width="1600" height="1000" viewBox="0 0 1600 1000" fill="none" xmlns="http://www.w3.org/2000/svg">
  <rect width="1600" height="1000" fill="#08090C"/>
  <rect width="1600" height="1000" fill="url(#bg3)"/>
  <path d="M0 676C160 632 326 632 498 662C684 694 836 760 1018 772C1234 786 1438 726 1600 652V1000H0V676Z" fill="#0B1320"/>
  <path d="M0 724C154 694 308 704 456 730C640 764 828 838 1032 846C1268 856 1464 804 1600 760V1000H0V724Z" fill="#0F1725"/>
  <path d="M0 782C196 760 402 772 612 810C822 848 1044 884 1264 878C1394 874 1504 858 1600 842V1000H0V782Z" fill="#071019"/>
  <g opacity="0.95">
    <rect x="242" y="406" width="98" height="318" fill="#141F30"/>
    <rect x="356" y="312" width="140" height="412" fill="#101A28"/>
    <rect x="518" y="216" width="84" height="508" fill="#182740"/>
    <rect x="626" y="348" width="72" height="376" fill="#0E1825"/>
    <rect x="714" y="286" width="118" height="438" fill="#132031"/>
    <rect x="850" y="188" width="88" height="536" fill="#16263C"/>
    <rect x="960" y="268" width="108" height="456" fill="#0F1825"/>
    <rect x="1086" y="144" width="86" height="580" fill="#192A43"/>
    <rect x="1190" y="250" width="132" height="474" fill="#111B29"/>
  </g>
  <g opacity="0.9">
    <rect x="274" y="452" width="12" height="12" fill="#EAF3FF"/>
    <rect x="292" y="452" width="12" height="12" fill="#EAF3FF"/>
    <rect x="392" y="358" width="13" height="13" fill="#D6E8FF"/>
    <rect x="412" y="358" width="13" height="13" fill="#D6E8FF"/>
    <rect x="546" y="264" width="12" height="12" fill="#EAF3FF"/>
    <rect x="734" y="336" width="12" height="12" fill="#D6E8FF"/>
    <rect x="754" y="336" width="12" height="12" fill="#D6E8FF"/>
    <rect x="876" y="236" width="12" height="12" fill="#EAF3FF"/>
    <rect x="1108" y="190" width="14" height="14" fill="#D6E8FF"/>
    <rect x="1130" y="190" width="14" height="14" fill="#D6E8FF"/>
  </g>
  <g opacity="0.86">
    <ellipse cx="1110" cy="418" rx="104" ry="184" fill="#0C2345"/>
    <ellipse cx="1110" cy="418" rx="34" ry="184" fill="#DCEBFF"/>
    <path d="M1040 418H1182" stroke="#DCEBFF" stroke-width="5"/>
    <path d="M1110 236V600" stroke="#DCEBFF" stroke-width="5"/>
  </g>
  <g opacity="0.78">
    <path d="M168 814C274 786 380 786 494 814C612 842 720 884 840 892C1014 904 1176 852 1326 794L1450 846" stroke="#1D4D96" stroke-width="10" stroke-linecap="round"/>
    <circle cx="494" cy="814" r="12" fill="#F6FBFF"/>
    <circle cx="840" cy="892" r="12" fill="#F6FBFF"/>
    <circle cx="1326" cy="794" r="12" fill="#F6FBFF"/>
  </g>
  <defs>
    <linearGradient id="bg3" x1="800" y1="0" x2="800" y2="1000" gradientUnits="userSpaceOnUse">
      <stop stop-color="#0D1725"/>
      <stop offset="0.54" stop-color="#09111A"/>
      <stop offset="1" stop-color="#07090D"/>
    </linearGradient>
  </defs>
</svg>
